<svg viewBox="0 0 20 23" xmlns="http://www.w3.org/2000/svg">
<defs><path id="field" vector-effect="non-scaling-stroke" stroke="black" stroke-width="2px" fill="none" d="M 1 0
L 1 0
L 0.999999987852447 0.010499342082457279
L 0.9999998058529906 0.020998684164914558
L 0.999999018928385 0.03149802624737184
L 0.9999969072393163 0.041997368329829116
L 0.9999924739626865 0.05249671041228639
L 0.9999844559095771 0.06299605249474367
L 0.9999713367163254 0.07349539457720095
L 0.9999513622909747 0.08399473665965823
L 0.9999225581552159 0.0944940787421155
L 0.9998827482939135 0.10499342082457278
L 0.9998295751106231 0.11549276290703006
L 0.9997605200876586 0.12599210498948735
L 0.999672924762037 0.13649144707194463
L 0.9995640116523106 0.1469907891544019
L 0.9994309048038035 0.15749013123685918
L 0.9992706496588517 0.16798947331931646
L 0.999080232002004 0.17848881540177372
L 0.9988565957756028 0.188988157484231
L 0.9985966596067719 0.1994874995666883
L 0.9982973319309308 0.20998684164914555
L 0.9979555246381825 0.22048618373160284
L 0.9975681652063226 0.23098552581406012
L 0.9971322073171237 0.2414848678965174
L 0.9966446399806017 0.2519842099789747
L 0.9961024952151056 0.262483552061432
L 0.9955028543493845 0.27298289414388927
L 0.9948428530265709 0.28348223622634655
L 0.9941196849996805 0.2939815783088038
L 0.9933306048142198 0.30448092039126107
L 0.9924729294763353 0.31498026247371835
L 0.9915440392051327 0.32547960455617564
L 0.9905413773658277 0.3359789466386329
L 0.98946244967674 0.3464782887210902
L 0.9883048227782049 0.35697763080354744
L 0.9870661222456228 0.3674769728860048
L 0.985744030122422 0.377976314968462
L 0.9843362820419079 0.3884756570509193
L 0.9828406640000643 0.3989749991333766
L 0.9812550088344806 0.40947434121583387
L 0.9795771924578864 0.4199736832982911
L 0.977805129888319 0.43047302538074844
L 0.9759367711118447 0.4409723674632057
L 0.9739700968080081 0.45147170954566296
L 0.9719031139628314 0.46197105162812024
L 0.9697338513892269 0.47247039371057753
L 0.9674603551701089 0.4829697357930348
L 0.9650806840352918 0.4934690778754921
L 0.9625929046793863 0.5039684199579494
L 0.9599950870243609 0.5144677620404067
L 0.9572852994271508 0.524967104122864
L 0.9544616038296608 0.5354664462053211
L 0.9515220508456692 0.5459657882877785
L 0.9484646747764648 0.5564651303702357
L 0.9452874885444886 0.5669644724526931
L 0.9419884785317822 0.5774638145351503
L 0.9385655993075968 0.5879631566176076
L 0.9350167682270888 0.5984624987000648
L 0.9313398598805285 0.6089618407825221
L 0.927532700369872 0.6194611828649794
L 0.9235930613868302 0.6299605249474367
L 0.9195186540636534 0.640459867029894
L 0.9153071225647009 0.6509592091123513
L 0.9109560373834067 0.6614585511948086
L 0.9064628883054219 0.6719578932772658
L 0.9018250769944448 0.682457235359723
L 0.8970399091524445 0.6929565774421804
L 0.8921045862005582 0.7034559195246377
L 0.8870161964207703 0.7139552616070949
L 0.8817717054914468 0.7244546036895522
L 0.8763679463417363 0.7349539457720096
L 0.870801608240582 0.7454532878544667
L 0.8650692250254012 0.755952629936924
L 0.8591671623631304 0.7664519720193813
L 0.8530916039219749 0.7769513141018386
L 0.846838536315507 0.7874506561842959
L 0.8404037326612374 0.7979499982667532
L 0.8337827345729298 0.8084493403492105
L 0.8269708323790447 0.8189486824316677
L 0.8199630433279916 0.829448024514125
L 0.8127540875033189 0.8399473665965822
L 0.8053383611273306 0.8504467086790396
L 0.7977099068783502 0.8609460507614969
L 0.7898623807830027 0.8714453928439541
L 0.7817890151680172 0.8819447349264113
L 0.7734825770630815 0.8924440770088687
L 0.7649353213332672 0.9029434190913259
L 0.7561389376814566 0.9134427611737832
L 0.7470844904915417 0.9239421032562405
L 0.7377623502734955 0.9344414453386978
L 0.7281621152106806 0.9449407874211551
L 0.7182725209834061 0.9554401295036123
L 0.7080813366313778 0.9659394715860696
L 0.6975752436952969 0.9764388136685269
L 0.6867396952092056 0.9869381557509842
L 0.6755587502519831 0.9974374978334414
L 0.6640148786419077 1.0079368399158988
L 0.6520887288788899 1.018436181998356
L 0.6397588504723117 1.0289355240808133
L 0.6270013591478515 1.0394348661632704
L 0.6137895298264257 1.049934208245728
L 0.6000932973008014 1.0604335503281852
L 0.5858786375800223 1.0709328924106423
L 0.571106792975259 1.0814322344930996
L 0.5557332896677939 1.091931576575557
L 0.5397066753308408 1.1024309186580141
L 0.5229668724210935 1.1129302607404714
L 0.5054429933218546 1.123429602822929
L 0.48705038490524727 1.1339289449053862
L 0.4676865410672208 1.1444282869878433
L 0.44722530226994744 1.1549276290703006
L 0.42550837157631427 1.165426971152758
L 0.4023324502781358 1.1759263132352151
L 0.37742885894823136 1.1864256553176724
L 0.35042945184525115 1.1969249974001297
L 0.32080550617117676 1.207424339482587
L 0.2877475695390946 1.2179236815650443
L 0.2498965400383673 1.2284230236475016
L 0.2046094659448856 1.2389223657299588
L 0.14508251069642022 1.2494217078124161
L 0 1.2599210498948734
L 0 1.2599210498948734
L -0.14508251069642022 1.2494217078124161
L -0.2046094659448856 1.2389223657299588
L -0.2498965400383673 1.2284230236475016
L -0.2877475695390946 1.2179236815650443
L -0.32080550617117676 1.207424339482587
L -0.35042945184525115 1.1969249974001297
L -0.37742885894823136 1.1864256553176724
L -0.4023324502781358 1.1759263132352151
L -0.42550837157631427 1.165426971152758
L -0.44722530226994744 1.1549276290703006
L -0.4676865410672208 1.1444282869878433
L -0.48705038490524727 1.1339289449053862
L -0.5054429933218546 1.123429602822929
L -0.5229668724210935 1.1129302607404714
L -0.5397066753308408 1.1024309186580141
L -0.5557332896677939 1.091931576575557
L -0.571106792975259 1.0814322344930996
L -0.5858786375800223 1.0709328924106423
L -0.6000932973008014 1.0604335503281852
L -0.6137895298264257 1.049934208245728
L -0.6270013591478515 1.0394348661632704
L -0.6397588504723117 1.0289355240808133
L -0.6520887288788899 1.018436181998356
L -0.6640148786419077 1.0079368399158988
L -0.6755587502519831 0.9974374978334414
L -0.6867396952092056 0.9869381557509842
L -0.6975752436952969 0.9764388136685269
L -0.7080813366313778 0.9659394715860696
L -0.7182725209834061 0.9554401295036123
L -0.7281621152106806 0.9449407874211551
L -0.7377623502734955 0.9344414453386978
L -0.7470844904915417 0.9239421032562405
L -0.7561389376814566 0.9134427611737832
L -0.7649353213332672 0.9029434190913259
L -0.7734825770630815 0.8924440770088687
L -0.7817890151680172 0.8819447349264113
L -0.7898623807830027 0.8714453928439541
L -0.7977099068783502 0.8609460507614969
L -0.8053383611273306 0.8504467086790396
L -0.8127540875033189 0.8399473665965822
L -0.8199630433279916 0.829448024514125
L -0.8269708323790447 0.8189486824316677
L -0.8337827345729298 0.8084493403492105
L -0.8404037326612374 0.7979499982667532
L -0.846838536315507 0.7874506561842959
L -0.8530916039219749 0.7769513141018386
L -0.8591671623631304 0.7664519720193813
L -0.8650692250254012 0.755952629936924
L -0.870801608240582 0.7454532878544667
L -0.8763679463417363 0.7349539457720096
L -0.8817717054914468 0.7244546036895522
L -0.8870161964207703 0.7139552616070949
L -0.8921045862005582 0.7034559195246377
L -0.8970399091524445 0.6929565774421804
L -0.9018250769944448 0.682457235359723
L -0.9064628883054219 0.6719578932772658
L -0.9109560373834067 0.6614585511948086
L -0.9153071225647009 0.6509592091123513
L -0.9195186540636534 0.640459867029894
L -0.9235930613868302 0.6299605249474367
L -0.927532700369872 0.6194611828649794
L -0.9313398598805285 0.6089618407825221
L -0.9350167682270888 0.5984624987000648
L -0.9385655993075968 0.5879631566176076
L -0.9419884785317822 0.5774638145351503
L -0.9452874885444886 0.5669644724526931
L -0.9484646747764648 0.5564651303702357
L -0.9515220508456692 0.5459657882877785
L -0.9544616038296608 0.5354664462053211
L -0.9572852994271508 0.524967104122864
L -0.9599950870243609 0.5144677620404067
L -0.9625929046793863 0.5039684199579494
L -0.9650806840352918 0.4934690778754921
L -0.9674603551701089 0.4829697357930348
L -0.9697338513892269 0.47247039371057753
L -0.9719031139628314 0.46197105162812024
L -0.9739700968080081 0.45147170954566296
L -0.9759367711118447 0.4409723674632057
L -0.977805129888319 0.43047302538074844
L -0.9795771924578864 0.4199736832982911
L -0.9812550088344806 0.40947434121583387
L -0.9828406640000643 0.3989749991333766
L -0.9843362820419079 0.3884756570509193
L -0.985744030122422 0.377976314968462
L -0.9870661222456228 0.3674769728860048
L -0.9883048227782049 0.35697763080354744
L -0.98946244967674 0.3464782887210902
L -0.9905413773658277 0.3359789466386329
L -0.9915440392051327 0.32547960455617564
L -0.9924729294763353 0.31498026247371835
L -0.9933306048142198 0.30448092039126107
L -0.9941196849996805 0.2939815783088038
L -0.9948428530265709 0.28348223622634655
L -0.9955028543493845 0.27298289414388927
L -0.9961024952151056 0.262483552061432
L -0.9966446399806017 0.2519842099789747
L -0.9971322073171237 0.2414848678965174
L -0.9975681652063226 0.23098552581406012
L -0.9979555246381825 0.22048618373160284
L -0.9982973319309308 0.20998684164914555
L -0.9985966596067719 0.1994874995666883
L -0.9988565957756028 0.188988157484231
L -0.999080232002004 0.17848881540177372
L -0.9992706496588517 0.16798947331931646
L -0.9994309048038035 0.15749013123685918
L -0.9995640116523106 0.1469907891544019
L -0.999672924762037 0.13649144707194463
L -0.9997605200876586 0.12599210498948735
L -0.9998295751106231 0.11549276290703006
L -0.9998827482939135 0.10499342082457278
L -0.9999225581552159 0.0944940787421155
L -0.9999513622909747 0.08399473665965823
L -0.9999713367163254 0.07349539457720095
L -0.9999844559095771 0.06299605249474367
L -0.9999924739626865 0.05249671041228639
L -0.9999969072393163 0.041997368329829116
L -0.999999018928385 0.03149802624737184
L -0.9999998058529906 0.020998684164914558
L -0.999999987852447 0.010499342082457279
L -1 0
L -1 0
L -0.999999987852447 -0.010499342082457279
L -0.9999998058529906 -0.020998684164914558
L -0.999999018928385 -0.03149802624737184
L -0.9999969072393163 -0.041997368329829116
L -0.9999924739626865 -0.05249671041228639
L -0.9999844559095771 -0.06299605249474367
L -0.9999713367163254 -0.07349539457720095
L -0.9999513622909747 -0.08399473665965823
L -0.9999225581552159 -0.0944940787421155
L -0.9998827482939135 -0.10499342082457278
L -0.9998295751106231 -0.11549276290703006
L -0.9997605200876586 -0.12599210498948735
L -0.999672924762037 -0.13649144707194463
L -0.9995640116523106 -0.1469907891544019
L -0.9994309048038035 -0.15749013123685918
L -0.9992706496588517 -0.16798947331931646
L -0.999080232002004 -0.17848881540177372
L -0.9988565957756028 -0.188988157484231
L -0.9985966596067719 -0.1994874995666883
L -0.9982973319309308 -0.20998684164914555
L -0.9979555246381825 -0.22048618373160284
L -0.9975681652063226 -0.23098552581406012
L -0.9971322073171237 -0.2414848678965174
L -0.9966446399806017 -0.2519842099789747
L -0.9961024952151056 -0.262483552061432
L -0.9955028543493845 -0.27298289414388927
L -0.9948428530265709 -0.28348223622634655
L -0.9941196849996805 -0.2939815783088038
L -0.9933306048142198 -0.30448092039126107
L -0.9924729294763353 -0.31498026247371835
L -0.9915440392051327 -0.32547960455617564
L -0.9905413773658277 -0.3359789466386329
L -0.98946244967674 -0.3464782887210902
L -0.9883048227782049 -0.35697763080354744
L -0.9870661222456228 -0.3674769728860048
L -0.985744030122422 -0.377976314968462
L -0.9843362820419079 -0.3884756570509193
L -0.9828406640000643 -0.3989749991333766
L -0.9812550088344806 -0.40947434121583387
L -0.9795771924578864 -0.4199736832982911
L -0.977805129888319 -0.43047302538074844
L -0.9759367711118447 -0.4409723674632057
L -0.9739700968080081 -0.45147170954566296
L -0.9719031139628314 -0.46197105162812024
L -0.9697338513892269 -0.47247039371057753
L -0.9674603551701089 -0.4829697357930348
L -0.9650806840352918 -0.4934690778754921
L -0.9625929046793863 -0.5039684199579494
L -0.9599950870243609 -0.5144677620404067
L -0.9572852994271508 -0.524967104122864
L -0.9544616038296608 -0.5354664462053211
L -0.9515220508456692 -0.5459657882877785
L -0.9484646747764648 -0.5564651303702357
L -0.9452874885444886 -0.5669644724526931
L -0.9419884785317822 -0.5774638145351503
L -0.9385655993075968 -0.5879631566176076
L -0.9350167682270888 -0.5984624987000648
L -0.9313398598805285 -0.6089618407825221
L -0.927532700369872 -0.6194611828649794
L -0.9235930613868302 -0.6299605249474367
L -0.9195186540636534 -0.640459867029894
L -0.9153071225647009 -0.6509592091123513
L -0.9109560373834067 -0.6614585511948086
L -0.9064628883054219 -0.6719578932772658
L -0.9018250769944448 -0.682457235359723
L -0.8970399091524445 -0.6929565774421804
L -0.8921045862005582 -0.7034559195246377
L -0.8870161964207703 -0.7139552616070949
L -0.8817717054914468 -0.7244546036895522
L -0.8763679463417363 -0.7349539457720096
L -0.870801608240582 -0.7454532878544667
L -0.8650692250254012 -0.755952629936924
L -0.8591671623631304 -0.7664519720193813
L -0.8530916039219749 -0.7769513141018386
L -0.846838536315507 -0.7874506561842959
L -0.8404037326612374 -0.7979499982667532
L -0.8337827345729298 -0.8084493403492105
L -0.8269708323790447 -0.8189486824316677
L -0.8199630433279916 -0.829448024514125
L -0.8127540875033189 -0.8399473665965822
L -0.8053383611273306 -0.8504467086790396
L -0.7977099068783502 -0.8609460507614969
L -0.7898623807830027 -0.8714453928439541
L -0.7817890151680172 -0.8819447349264113
L -0.7734825770630815 -0.8924440770088687
L -0.7649353213332672 -0.9029434190913259
L -0.7561389376814566 -0.9134427611737832
L -0.7470844904915417 -0.9239421032562405
L -0.7377623502734955 -0.9344414453386978
L -0.7281621152106806 -0.9449407874211551
L -0.7182725209834061 -0.9554401295036123
L -0.7080813366313778 -0.9659394715860696
L -0.6975752436952969 -0.9764388136685269
L -0.6867396952092056 -0.9869381557509842
L -0.6755587502519831 -0.9974374978334414
L -0.6640148786419077 -1.0079368399158988
L -0.6520887288788899 -1.018436181998356
L -0.6397588504723117 -1.0289355240808133
L -0.6270013591478515 -1.0394348661632704
L -0.6137895298264257 -1.049934208245728
L -0.6000932973008014 -1.0604335503281852
L -0.5858786375800223 -1.0709328924106423
L -0.571106792975259 -1.0814322344930996
L -0.5557332896677939 -1.091931576575557
L -0.5397066753308408 -1.1024309186580141
L -0.5229668724210935 -1.1129302607404714
L -0.5054429933218546 -1.123429602822929
L -0.48705038490524727 -1.1339289449053862
L -0.4676865410672208 -1.1444282869878433
L -0.44722530226994744 -1.1549276290703006
L -0.42550837157631427 -1.165426971152758
L -0.4023324502781358 -1.1759263132352151
L -0.37742885894823136 -1.1864256553176724
L -0.35042945184525115 -1.1969249974001297
L -0.32080550617117676 -1.207424339482587
L -0.2877475695390946 -1.2179236815650443
L -0.2498965400383673 -1.2284230236475016
L -0.2046094659448856 -1.2389223657299588
L -0.14508251069642022 -1.2494217078124161
L 0 -1.2599210498948734
L 0 -1.2599210498948734
L 0.14508251069642022 -1.2494217078124161
L 0.2046094659448856 -1.2389223657299588
L 0.2498965400383673 -1.2284230236475016
L 0.2877475695390946 -1.2179236815650443
L 0.32080550617117676 -1.207424339482587
L 0.35042945184525115 -1.1969249974001297
L 0.37742885894823136 -1.1864256553176724
L 0.4023324502781358 -1.1759263132352151
L 0.42550837157631427 -1.165426971152758
L 0.44722530226994744 -1.1549276290703006
L 0.4676865410672208 -1.1444282869878433
L 0.48705038490524727 -1.1339289449053862
L 0.5054429933218546 -1.123429602822929
L 0.5229668724210935 -1.1129302607404714
L 0.5397066753308408 -1.1024309186580141
L 0.5557332896677939 -1.091931576575557
L 0.571106792975259 -1.0814322344930996
L 0.5858786375800223 -1.0709328924106423
L 0.6000932973008014 -1.0604335503281852
L 0.6137895298264257 -1.049934208245728
L 0.6270013591478515 -1.0394348661632704
L 0.6397588504723117 -1.0289355240808133
L 0.6520887288788899 -1.018436181998356
L 0.6640148786419077 -1.0079368399158988
L 0.6755587502519831 -0.9974374978334414
L 0.6867396952092056 -0.9869381557509842
L 0.6975752436952969 -0.9764388136685269
L 0.7080813366313778 -0.9659394715860696
L 0.7182725209834061 -0.9554401295036123
L 0.7281621152106806 -0.9449407874211551
L 0.7377623502734955 -0.9344414453386978
L 0.7470844904915417 -0.9239421032562405
L 0.7561389376814566 -0.9134427611737832
L 0.7649353213332672 -0.9029434190913259
L 0.7734825770630815 -0.8924440770088687
L 0.7817890151680172 -0.8819447349264113
L 0.7898623807830027 -0.8714453928439541
L 0.7977099068783502 -0.8609460507614969
L 0.8053383611273306 -0.8504467086790396
L 0.8127540875033189 -0.8399473665965822
L 0.8199630433279916 -0.829448024514125
L 0.8269708323790447 -0.8189486824316677
L 0.8337827345729298 -0.8084493403492105
L 0.8404037326612374 -0.7979499982667532
L 0.846838536315507 -0.7874506561842959
L 0.8530916039219749 -0.7769513141018386
L 0.8591671623631304 -0.7664519720193813
L 0.8650692250254012 -0.755952629936924
L 0.870801608240582 -0.7454532878544667
L 0.8763679463417363 -0.7349539457720096
L 0.8817717054914468 -0.7244546036895522
L 0.8870161964207703 -0.7139552616070949
L 0.8921045862005582 -0.7034559195246377
L 0.8970399091524445 -0.6929565774421804
L 0.9018250769944448 -0.682457235359723
L 0.9064628883054219 -0.6719578932772658
L 0.9109560373834067 -0.6614585511948086
L 0.9153071225647009 -0.6509592091123513
L 0.9195186540636534 -0.640459867029894
L 0.9235930613868302 -0.6299605249474367
L 0.927532700369872 -0.6194611828649794
L 0.9313398598805285 -0.6089618407825221
L 0.9350167682270888 -0.5984624987000648
L 0.9385655993075968 -0.5879631566176076
L 0.9419884785317822 -0.5774638145351503
L 0.9452874885444886 -0.5669644724526931
L 0.9484646747764648 -0.5564651303702357
L 0.9515220508456692 -0.5459657882877785
L 0.9544616038296608 -0.5354664462053211
L 0.9572852994271508 -0.524967104122864
L 0.9599950870243609 -0.5144677620404067
L 0.9625929046793863 -0.5039684199579494
L 0.9650806840352918 -0.4934690778754921
L 0.9674603551701089 -0.4829697357930348
L 0.9697338513892269 -0.47247039371057753
L 0.9719031139628314 -0.46197105162812024
L 0.9739700968080081 -0.45147170954566296
L 0.9759367711118447 -0.4409723674632057
L 0.977805129888319 -0.43047302538074844
L 0.9795771924578864 -0.4199736832982911
L 0.9812550088344806 -0.40947434121583387
L 0.9828406640000643 -0.3989749991333766
L 0.9843362820419079 -0.3884756570509193
L 0.985744030122422 -0.377976314968462
L 0.9870661222456228 -0.3674769728860048
L 0.9883048227782049 -0.35697763080354744
L 0.98946244967674 -0.3464782887210902
L 0.9905413773658277 -0.3359789466386329
L 0.9915440392051327 -0.32547960455617564
L 0.9924729294763353 -0.31498026247371835
L 0.9933306048142198 -0.30448092039126107
L 0.9941196849996805 -0.2939815783088038
L 0.9948428530265709 -0.28348223622634655
L 0.9955028543493845 -0.27298289414388927
L 0.9961024952151056 -0.262483552061432
L 0.9966446399806017 -0.2519842099789747
L 0.9971322073171237 -0.2414848678965174
L 0.9975681652063226 -0.23098552581406012
L 0.9979555246381825 -0.22048618373160284
L 0.9982973319309308 -0.20998684164914555
L 0.9985966596067719 -0.1994874995666883
L 0.9988565957756028 -0.188988157484231
L 0.999080232002004 -0.17848881540177372
L 0.9992706496588517 -0.16798947331931646
L 0.9994309048038035 -0.15749013123685918
L 0.9995640116523106 -0.1469907891544019
L 0.999672924762037 -0.13649144707194463
L 0.9997605200876586 -0.12599210498948735
L 0.9998295751106231 -0.11549276290703006
L 0.9998827482939135 -0.10499342082457278
L 0.9999225581552159 -0.0944940787421155
L 0.9999513622909747 -0.08399473665965823
L 0.9999713367163254 -0.07349539457720095
L 0.9999844559095771 -0.06299605249474367
L 0.9999924739626865 -0.05249671041228639
L 0.9999969072393163 -0.041997368329829116
L 0.999999018928385 -0.03149802624737184
L 0.9999998058529906 -0.020998684164914558
L 0.999999987852447 -0.010499342082457279
L 1 0
"/></defs>
<use href="#field" transform="translate(10 11.5) scale(1)" />
<use href="#field" transform="translate(10 11.5) scale(2)" />
<use href="#field" transform="translate(10 11.5) scale(3)" />
<use href="#field" transform="translate(10 11.5) scale(4)" />
<use href="#field" transform="translate(10 11.5) scale(5)" />
<use href="#field" transform="translate(10 11.5) scale(6)" />
<use href="#field" transform="translate(10 11.5) scale(7)" />
<use href="#field" transform="translate(10 11.5) scale(8)" />
<use href="#field" transform="translate(10 11.5) scale(9)" />
<line stroke="red" vector-effect="non-scaling-stroke" stroke-width="2px" x1="0" x2="20" y1="7" y2="7" />
</svg>
