G04 #@! TF.GenerationSoftware,KiCad,Pcbnew,5.1.4-e60b266~84~ubuntu18.04.1*
G04 #@! TF.CreationDate,2019-12-09T17:50:20+02:00*
G04 #@! TF.ProjectId,magnetometrisormi,6d61676e-6574-46f6-9d65-747269736f72,rev?*
G04 #@! TF.SameCoordinates,Original*
G04 #@! TF.FileFunction,Soldermask,Top*
G04 #@! TF.FilePolarity,Negative*
%FSLAX46Y46*%
G04 Gerber Fmt 4.6, Leading zero omitted, Abs format (unit mm)*
G04 Created by KiCad (PCBNEW 5.1.4-e60b266~84~ubuntu18.04.1) date 2019-12-09 17:50:20*
%MOMM*%
%LPD*%
G04 APERTURE LIST*
%ADD10C,0.100000*%
G04 APERTURE END LIST*
D10*
G36*
X110875552Y-83894331D02*
G01*
X110957627Y-83928328D01*
X110957629Y-83928329D01*
X110994813Y-83953175D01*
X111031495Y-83977685D01*
X111094315Y-84040505D01*
X111143672Y-84114373D01*
X111177669Y-84196448D01*
X111195000Y-84283579D01*
X111195000Y-84372421D01*
X111177669Y-84459552D01*
X111143672Y-84541627D01*
X111143671Y-84541629D01*
X111094314Y-84615496D01*
X111031496Y-84678314D01*
X110957629Y-84727671D01*
X110957628Y-84727672D01*
X110957627Y-84727672D01*
X110875552Y-84761669D01*
X110788421Y-84779000D01*
X110699579Y-84779000D01*
X110612448Y-84761669D01*
X110530373Y-84727672D01*
X110530372Y-84727672D01*
X110530371Y-84727671D01*
X110456504Y-84678314D01*
X110393686Y-84615496D01*
X110344329Y-84541629D01*
X110344328Y-84541627D01*
X110310331Y-84459552D01*
X110293000Y-84372421D01*
X110293000Y-84283579D01*
X110310331Y-84196448D01*
X110344328Y-84114373D01*
X110393685Y-84040505D01*
X110456505Y-83977685D01*
X110493187Y-83953175D01*
X110530371Y-83928329D01*
X110530373Y-83928328D01*
X110612448Y-83894331D01*
X110699579Y-83877000D01*
X110788421Y-83877000D01*
X110875552Y-83894331D01*
X110875552Y-83894331D01*
G37*
G36*
X119384552Y-83894331D02*
G01*
X119466627Y-83928328D01*
X119466629Y-83928329D01*
X119503813Y-83953175D01*
X119540495Y-83977685D01*
X119603315Y-84040505D01*
X119652672Y-84114373D01*
X119686669Y-84196448D01*
X119704000Y-84283579D01*
X119704000Y-84372421D01*
X119686669Y-84459552D01*
X119652672Y-84541627D01*
X119652671Y-84541629D01*
X119603314Y-84615496D01*
X119540496Y-84678314D01*
X119466629Y-84727671D01*
X119466628Y-84727672D01*
X119466627Y-84727672D01*
X119384552Y-84761669D01*
X119297421Y-84779000D01*
X119208579Y-84779000D01*
X119121448Y-84761669D01*
X119039373Y-84727672D01*
X119039372Y-84727672D01*
X119039371Y-84727671D01*
X118965504Y-84678314D01*
X118902686Y-84615496D01*
X118853329Y-84541629D01*
X118853328Y-84541627D01*
X118819331Y-84459552D01*
X118802000Y-84372421D01*
X118802000Y-84283579D01*
X118819331Y-84196448D01*
X118853328Y-84114373D01*
X118902685Y-84040505D01*
X118965505Y-83977685D01*
X119002187Y-83953175D01*
X119039371Y-83928329D01*
X119039373Y-83928328D01*
X119121448Y-83894331D01*
X119208579Y-83877000D01*
X119297421Y-83877000D01*
X119384552Y-83894331D01*
X119384552Y-83894331D01*
G37*
G36*
X115066552Y-83894331D02*
G01*
X115148627Y-83928328D01*
X115148629Y-83928329D01*
X115185813Y-83953175D01*
X115222495Y-83977685D01*
X115285315Y-84040505D01*
X115334672Y-84114373D01*
X115368669Y-84196448D01*
X115386000Y-84283579D01*
X115386000Y-84372421D01*
X115368669Y-84459552D01*
X115334672Y-84541627D01*
X115334671Y-84541629D01*
X115285314Y-84615496D01*
X115222496Y-84678314D01*
X115148629Y-84727671D01*
X115148628Y-84727672D01*
X115148627Y-84727672D01*
X115066552Y-84761669D01*
X114979421Y-84779000D01*
X114890579Y-84779000D01*
X114803448Y-84761669D01*
X114721373Y-84727672D01*
X114721372Y-84727672D01*
X114721371Y-84727671D01*
X114647504Y-84678314D01*
X114584686Y-84615496D01*
X114535329Y-84541629D01*
X114535328Y-84541627D01*
X114501331Y-84459552D01*
X114484000Y-84372421D01*
X114484000Y-84283579D01*
X114501331Y-84196448D01*
X114535328Y-84114373D01*
X114584685Y-84040505D01*
X114647505Y-83977685D01*
X114684187Y-83953175D01*
X114721371Y-83928329D01*
X114721373Y-83928328D01*
X114803448Y-83894331D01*
X114890579Y-83877000D01*
X114979421Y-83877000D01*
X115066552Y-83894331D01*
X115066552Y-83894331D01*
G37*
G36*
X112971938Y-83731716D02*
G01*
X112992557Y-83737971D01*
X113011553Y-83748124D01*
X113028208Y-83761792D01*
X113041876Y-83778447D01*
X113052029Y-83797443D01*
X113058284Y-83818062D01*
X113061000Y-83845640D01*
X113061000Y-84354360D01*
X113058284Y-84381938D01*
X113052029Y-84402557D01*
X113041876Y-84421553D01*
X113028208Y-84438208D01*
X113011553Y-84451876D01*
X112992557Y-84462029D01*
X112971938Y-84468284D01*
X112944360Y-84471000D01*
X112485640Y-84471000D01*
X112458062Y-84468284D01*
X112437443Y-84462029D01*
X112418447Y-84451876D01*
X112401792Y-84438208D01*
X112388124Y-84421553D01*
X112377971Y-84402557D01*
X112371716Y-84381938D01*
X112369000Y-84354360D01*
X112369000Y-83845640D01*
X112371716Y-83818062D01*
X112377971Y-83797443D01*
X112388124Y-83778447D01*
X112401792Y-83761792D01*
X112418447Y-83748124D01*
X112437443Y-83737971D01*
X112458062Y-83731716D01*
X112485640Y-83729000D01*
X112944360Y-83729000D01*
X112971938Y-83731716D01*
X112971938Y-83731716D01*
G37*
G36*
X113941938Y-83731716D02*
G01*
X113962557Y-83737971D01*
X113981553Y-83748124D01*
X113998208Y-83761792D01*
X114011876Y-83778447D01*
X114022029Y-83797443D01*
X114028284Y-83818062D01*
X114031000Y-83845640D01*
X114031000Y-84354360D01*
X114028284Y-84381938D01*
X114022029Y-84402557D01*
X114011876Y-84421553D01*
X113998208Y-84438208D01*
X113981553Y-84451876D01*
X113962557Y-84462029D01*
X113941938Y-84468284D01*
X113914360Y-84471000D01*
X113455640Y-84471000D01*
X113428062Y-84468284D01*
X113407443Y-84462029D01*
X113388447Y-84451876D01*
X113371792Y-84438208D01*
X113358124Y-84421553D01*
X113347971Y-84402557D01*
X113341716Y-84381938D01*
X113339000Y-84354360D01*
X113339000Y-83845640D01*
X113341716Y-83818062D01*
X113347971Y-83797443D01*
X113358124Y-83778447D01*
X113371792Y-83761792D01*
X113388447Y-83748124D01*
X113407443Y-83737971D01*
X113428062Y-83731716D01*
X113455640Y-83729000D01*
X113914360Y-83729000D01*
X113941938Y-83731716D01*
X113941938Y-83731716D01*
G37*
G36*
X118331552Y-82566331D02*
G01*
X118413627Y-82600328D01*
X118413629Y-82600329D01*
X118450813Y-82625175D01*
X118487495Y-82649685D01*
X118550315Y-82712505D01*
X118599672Y-82786373D01*
X118633669Y-82868448D01*
X118651000Y-82955579D01*
X118651000Y-83044421D01*
X118633669Y-83131552D01*
X118599672Y-83213627D01*
X118550315Y-83287495D01*
X118487495Y-83350315D01*
X118450813Y-83374825D01*
X118413629Y-83399671D01*
X118413628Y-83399672D01*
X118413627Y-83399672D01*
X118331552Y-83433669D01*
X118244421Y-83451000D01*
X118155579Y-83451000D01*
X118068448Y-83433669D01*
X117986373Y-83399672D01*
X117986372Y-83399672D01*
X117986371Y-83399671D01*
X117949187Y-83374825D01*
X117912505Y-83350315D01*
X117849685Y-83287495D01*
X117800328Y-83213627D01*
X117766331Y-83131552D01*
X117749000Y-83044421D01*
X117749000Y-82955579D01*
X117766331Y-82868448D01*
X117800328Y-82786373D01*
X117849685Y-82712505D01*
X117912505Y-82649685D01*
X117949187Y-82625175D01*
X117986371Y-82600329D01*
X117986373Y-82600328D01*
X118068448Y-82566331D01*
X118155579Y-82549000D01*
X118244421Y-82549000D01*
X118331552Y-82566331D01*
X118331552Y-82566331D01*
G37*
G36*
X112481938Y-82741716D02*
G01*
X112502557Y-82747971D01*
X112521553Y-82758124D01*
X112538208Y-82771792D01*
X112551876Y-82788447D01*
X112562029Y-82807443D01*
X112568284Y-82828062D01*
X112571000Y-82855640D01*
X112571000Y-83314360D01*
X112568284Y-83341938D01*
X112562029Y-83362557D01*
X112551876Y-83381553D01*
X112538208Y-83398208D01*
X112521553Y-83411876D01*
X112502557Y-83422029D01*
X112481938Y-83428284D01*
X112454360Y-83431000D01*
X111945640Y-83431000D01*
X111918062Y-83428284D01*
X111897443Y-83422029D01*
X111878447Y-83411876D01*
X111861792Y-83398208D01*
X111848124Y-83381553D01*
X111837971Y-83362557D01*
X111831716Y-83341938D01*
X111829000Y-83314360D01*
X111829000Y-82855640D01*
X111831716Y-82828062D01*
X111837971Y-82807443D01*
X111848124Y-82788447D01*
X111861792Y-82771792D01*
X111878447Y-82758124D01*
X111897443Y-82747971D01*
X111918062Y-82741716D01*
X111945640Y-82739000D01*
X112454360Y-82739000D01*
X112481938Y-82741716D01*
X112481938Y-82741716D01*
G37*
G36*
X112481938Y-81771716D02*
G01*
X112502557Y-81777971D01*
X112521553Y-81788124D01*
X112538208Y-81801792D01*
X112551876Y-81818447D01*
X112562029Y-81837443D01*
X112568284Y-81858062D01*
X112571000Y-81885640D01*
X112571000Y-82344360D01*
X112568284Y-82371938D01*
X112562029Y-82392557D01*
X112551876Y-82411553D01*
X112538208Y-82428208D01*
X112521553Y-82441876D01*
X112502557Y-82452029D01*
X112481938Y-82458284D01*
X112454360Y-82461000D01*
X111945640Y-82461000D01*
X111918062Y-82458284D01*
X111897443Y-82452029D01*
X111878447Y-82441876D01*
X111861792Y-82428208D01*
X111848124Y-82411553D01*
X111837971Y-82392557D01*
X111831716Y-82371938D01*
X111829000Y-82344360D01*
X111829000Y-81885640D01*
X111831716Y-81858062D01*
X111837971Y-81837443D01*
X111848124Y-81818447D01*
X111861792Y-81801792D01*
X111878447Y-81788124D01*
X111897443Y-81777971D01*
X111918062Y-81771716D01*
X111945640Y-81769000D01*
X112454360Y-81769000D01*
X112481938Y-81771716D01*
X112481938Y-81771716D01*
G37*
G36*
X114616000Y-80689001D02*
G01*
X114618402Y-80713387D01*
X114625515Y-80736836D01*
X114637066Y-80758447D01*
X114652611Y-80777389D01*
X114671553Y-80792934D01*
X114693164Y-80804485D01*
X114716613Y-80811598D01*
X114740999Y-80814000D01*
X115006000Y-80814000D01*
X115006000Y-81596000D01*
X114740999Y-81596000D01*
X114716613Y-81598402D01*
X114693164Y-81605515D01*
X114671553Y-81617066D01*
X114652611Y-81632611D01*
X114637066Y-81651553D01*
X114625515Y-81673164D01*
X114618402Y-81696613D01*
X114616000Y-81720999D01*
X114616000Y-82206000D01*
X113384000Y-82206000D01*
X113384000Y-81720999D01*
X113381598Y-81696613D01*
X113374485Y-81673164D01*
X113362934Y-81651553D01*
X113347389Y-81632611D01*
X113328447Y-81617066D01*
X113306836Y-81605515D01*
X113283387Y-81598402D01*
X113259001Y-81596000D01*
X112994000Y-81596000D01*
X112994000Y-80814000D01*
X113259001Y-80814000D01*
X113283387Y-80811598D01*
X113306836Y-80804485D01*
X113328447Y-80792934D01*
X113347389Y-80777389D01*
X113362934Y-80758447D01*
X113366914Y-80750999D01*
X113426000Y-80750999D01*
X113426000Y-81649001D01*
X113428402Y-81673387D01*
X113435515Y-81696836D01*
X113447066Y-81718447D01*
X113462611Y-81737389D01*
X113481553Y-81752934D01*
X113503164Y-81764485D01*
X113526613Y-81771598D01*
X113550999Y-81774000D01*
X114449001Y-81774000D01*
X114473387Y-81771598D01*
X114496836Y-81764485D01*
X114518447Y-81752934D01*
X114537389Y-81737389D01*
X114552934Y-81718447D01*
X114564485Y-81696836D01*
X114571598Y-81673387D01*
X114574000Y-81649001D01*
X114574000Y-80750999D01*
X114571598Y-80726613D01*
X114564485Y-80703164D01*
X114552934Y-80681553D01*
X114537389Y-80662611D01*
X114518447Y-80647066D01*
X114496836Y-80635515D01*
X114473387Y-80628402D01*
X114449001Y-80626000D01*
X113550999Y-80626000D01*
X113526613Y-80628402D01*
X113503164Y-80635515D01*
X113481553Y-80647066D01*
X113462611Y-80662611D01*
X113447066Y-80681553D01*
X113435515Y-80703164D01*
X113428402Y-80726613D01*
X113426000Y-80750999D01*
X113366914Y-80750999D01*
X113374485Y-80736836D01*
X113381598Y-80713387D01*
X113384000Y-80689001D01*
X113384000Y-80194000D01*
X114616000Y-80194000D01*
X114616000Y-80689001D01*
X114616000Y-80689001D01*
G37*
G36*
X118331552Y-81066331D02*
G01*
X118401558Y-81095329D01*
X118413629Y-81100329D01*
X118438345Y-81116844D01*
X118487495Y-81149685D01*
X118550315Y-81212505D01*
X118599672Y-81286373D01*
X118633669Y-81368448D01*
X118651000Y-81455579D01*
X118651000Y-81544421D01*
X118633669Y-81631552D01*
X118606627Y-81696836D01*
X118599671Y-81713629D01*
X118594746Y-81720999D01*
X118550315Y-81787495D01*
X118487495Y-81850315D01*
X118450813Y-81874825D01*
X118413629Y-81899671D01*
X118413628Y-81899672D01*
X118413627Y-81899672D01*
X118331552Y-81933669D01*
X118244421Y-81951000D01*
X118155579Y-81951000D01*
X118068448Y-81933669D01*
X117986373Y-81899672D01*
X117986372Y-81899672D01*
X117986371Y-81899671D01*
X117949187Y-81874825D01*
X117912505Y-81850315D01*
X117849685Y-81787495D01*
X117805254Y-81720999D01*
X117800329Y-81713629D01*
X117793373Y-81696836D01*
X117766331Y-81631552D01*
X117749000Y-81544421D01*
X117749000Y-81455579D01*
X117766331Y-81368448D01*
X117800328Y-81286373D01*
X117849685Y-81212505D01*
X117912505Y-81149685D01*
X117961655Y-81116844D01*
X117986371Y-81100329D01*
X117998442Y-81095329D01*
X118068448Y-81066331D01*
X118155579Y-81049000D01*
X118244421Y-81049000D01*
X118331552Y-81066331D01*
X118331552Y-81066331D01*
G37*
G36*
X112481938Y-80741716D02*
G01*
X112502557Y-80747971D01*
X112521553Y-80758124D01*
X112538208Y-80771792D01*
X112551876Y-80788447D01*
X112562029Y-80807443D01*
X112568284Y-80828062D01*
X112571000Y-80855640D01*
X112571000Y-81314360D01*
X112568284Y-81341938D01*
X112562029Y-81362557D01*
X112551876Y-81381553D01*
X112538208Y-81398208D01*
X112521553Y-81411876D01*
X112502557Y-81422029D01*
X112481938Y-81428284D01*
X112454360Y-81431000D01*
X111945640Y-81431000D01*
X111918062Y-81428284D01*
X111897443Y-81422029D01*
X111878447Y-81411876D01*
X111861792Y-81398208D01*
X111848124Y-81381553D01*
X111837971Y-81362557D01*
X111831716Y-81341938D01*
X111829000Y-81314360D01*
X111829000Y-80855640D01*
X111831716Y-80828062D01*
X111837971Y-80807443D01*
X111848124Y-80788447D01*
X111861792Y-80771792D01*
X111878447Y-80758124D01*
X111897443Y-80747971D01*
X111918062Y-80741716D01*
X111945640Y-80739000D01*
X112454360Y-80739000D01*
X112481938Y-80741716D01*
X112481938Y-80741716D01*
G37*
G36*
X116081938Y-80456716D02*
G01*
X116102557Y-80462971D01*
X116121553Y-80473124D01*
X116138208Y-80486792D01*
X116151876Y-80503447D01*
X116162029Y-80522443D01*
X116168284Y-80543062D01*
X116171000Y-80570640D01*
X116171000Y-81029360D01*
X116168284Y-81056938D01*
X116162029Y-81077557D01*
X116151876Y-81096553D01*
X116138208Y-81113208D01*
X116121553Y-81126876D01*
X116102557Y-81137029D01*
X116081938Y-81143284D01*
X116054360Y-81146000D01*
X115545640Y-81146000D01*
X115518062Y-81143284D01*
X115497443Y-81137029D01*
X115478447Y-81126876D01*
X115461792Y-81113208D01*
X115448124Y-81096553D01*
X115437971Y-81077557D01*
X115431716Y-81056938D01*
X115429000Y-81029360D01*
X115429000Y-80570640D01*
X115431716Y-80543062D01*
X115437971Y-80522443D01*
X115448124Y-80503447D01*
X115461792Y-80486792D01*
X115478447Y-80473124D01*
X115497443Y-80462971D01*
X115518062Y-80456716D01*
X115545640Y-80454000D01*
X116054360Y-80454000D01*
X116081938Y-80456716D01*
X116081938Y-80456716D01*
G37*
G36*
X117281938Y-80456716D02*
G01*
X117302557Y-80462971D01*
X117321553Y-80473124D01*
X117338208Y-80486792D01*
X117351876Y-80503447D01*
X117362029Y-80522443D01*
X117368284Y-80543062D01*
X117371000Y-80570640D01*
X117371000Y-81029360D01*
X117368284Y-81056938D01*
X117362029Y-81077557D01*
X117351876Y-81096553D01*
X117338208Y-81113208D01*
X117321553Y-81126876D01*
X117302557Y-81137029D01*
X117281938Y-81143284D01*
X117254360Y-81146000D01*
X116745640Y-81146000D01*
X116718062Y-81143284D01*
X116697443Y-81137029D01*
X116678447Y-81126876D01*
X116661792Y-81113208D01*
X116648124Y-81096553D01*
X116637971Y-81077557D01*
X116631716Y-81056938D01*
X116629000Y-81029360D01*
X116629000Y-80570640D01*
X116631716Y-80543062D01*
X116637971Y-80522443D01*
X116648124Y-80503447D01*
X116661792Y-80486792D01*
X116678447Y-80473124D01*
X116697443Y-80462971D01*
X116718062Y-80456716D01*
X116745640Y-80454000D01*
X117254360Y-80454000D01*
X117281938Y-80456716D01*
X117281938Y-80456716D01*
G37*
G36*
X119431552Y-80166331D02*
G01*
X119513627Y-80200328D01*
X119513629Y-80200329D01*
X119550813Y-80225175D01*
X119587495Y-80249685D01*
X119650315Y-80312505D01*
X119699672Y-80386373D01*
X119733669Y-80468448D01*
X119751000Y-80555579D01*
X119751000Y-80644421D01*
X119733669Y-80731552D01*
X119700512Y-80811598D01*
X119699671Y-80813629D01*
X119650314Y-80887496D01*
X119587496Y-80950314D01*
X119513629Y-80999671D01*
X119513628Y-80999672D01*
X119513627Y-80999672D01*
X119431552Y-81033669D01*
X119344421Y-81051000D01*
X119255579Y-81051000D01*
X119168448Y-81033669D01*
X119086373Y-80999672D01*
X119086372Y-80999672D01*
X119086371Y-80999671D01*
X119012504Y-80950314D01*
X118949686Y-80887496D01*
X118900329Y-80813629D01*
X118899488Y-80811598D01*
X118866331Y-80731552D01*
X118849000Y-80644421D01*
X118849000Y-80555579D01*
X118866331Y-80468448D01*
X118900328Y-80386373D01*
X118949685Y-80312505D01*
X119012505Y-80249685D01*
X119049187Y-80225175D01*
X119086371Y-80200329D01*
X119086373Y-80200328D01*
X119168448Y-80166331D01*
X119255579Y-80149000D01*
X119344421Y-80149000D01*
X119431552Y-80166331D01*
X119431552Y-80166331D01*
G37*
G36*
X110875552Y-80166331D02*
G01*
X110957627Y-80200328D01*
X110957629Y-80200329D01*
X110994813Y-80225175D01*
X111031495Y-80249685D01*
X111094315Y-80312505D01*
X111143672Y-80386373D01*
X111177669Y-80468448D01*
X111195000Y-80555579D01*
X111195000Y-80644421D01*
X111177669Y-80731552D01*
X111144512Y-80811598D01*
X111143671Y-80813629D01*
X111094314Y-80887496D01*
X111031496Y-80950314D01*
X110957629Y-80999671D01*
X110957628Y-80999672D01*
X110957627Y-80999672D01*
X110875552Y-81033669D01*
X110788421Y-81051000D01*
X110699579Y-81051000D01*
X110612448Y-81033669D01*
X110530373Y-80999672D01*
X110530372Y-80999672D01*
X110530371Y-80999671D01*
X110456504Y-80950314D01*
X110393686Y-80887496D01*
X110344329Y-80813629D01*
X110343488Y-80811598D01*
X110310331Y-80731552D01*
X110293000Y-80644421D01*
X110293000Y-80555579D01*
X110310331Y-80468448D01*
X110344328Y-80386373D01*
X110393685Y-80312505D01*
X110456505Y-80249685D01*
X110493187Y-80225175D01*
X110530371Y-80200329D01*
X110530373Y-80200328D01*
X110612448Y-80166331D01*
X110699579Y-80149000D01*
X110788421Y-80149000D01*
X110875552Y-80166331D01*
X110875552Y-80166331D01*
G37*
G36*
X112481938Y-79771716D02*
G01*
X112502557Y-79777971D01*
X112521553Y-79788124D01*
X112538208Y-79801792D01*
X112551876Y-79818447D01*
X112562029Y-79837443D01*
X112568284Y-79858062D01*
X112571000Y-79885640D01*
X112571000Y-80344360D01*
X112568284Y-80371938D01*
X112562029Y-80392557D01*
X112551876Y-80411553D01*
X112538208Y-80428208D01*
X112521553Y-80441876D01*
X112502557Y-80452029D01*
X112481938Y-80458284D01*
X112454360Y-80461000D01*
X111945640Y-80461000D01*
X111918062Y-80458284D01*
X111897443Y-80452029D01*
X111878447Y-80441876D01*
X111861792Y-80428208D01*
X111848124Y-80411553D01*
X111837971Y-80392557D01*
X111831716Y-80371938D01*
X111829000Y-80344360D01*
X111829000Y-79885640D01*
X111831716Y-79858062D01*
X111837971Y-79837443D01*
X111848124Y-79818447D01*
X111861792Y-79801792D01*
X111878447Y-79788124D01*
X111897443Y-79777971D01*
X111918062Y-79771716D01*
X111945640Y-79769000D01*
X112454360Y-79769000D01*
X112481938Y-79771716D01*
X112481938Y-79771716D01*
G37*
G36*
X118331552Y-79566331D02*
G01*
X118413627Y-79600328D01*
X118413629Y-79600329D01*
X118414094Y-79600640D01*
X118487495Y-79649685D01*
X118550315Y-79712505D01*
X118599672Y-79786373D01*
X118633669Y-79868448D01*
X118651000Y-79955579D01*
X118651000Y-80044421D01*
X118633669Y-80131552D01*
X118599672Y-80213627D01*
X118550315Y-80287495D01*
X118487495Y-80350315D01*
X118455134Y-80371938D01*
X118413629Y-80399671D01*
X118413628Y-80399672D01*
X118413627Y-80399672D01*
X118331552Y-80433669D01*
X118244421Y-80451000D01*
X118155579Y-80451000D01*
X118068448Y-80433669D01*
X117986373Y-80399672D01*
X117986372Y-80399672D01*
X117986371Y-80399671D01*
X117944866Y-80371938D01*
X117912505Y-80350315D01*
X117849685Y-80287495D01*
X117800328Y-80213627D01*
X117766331Y-80131552D01*
X117749000Y-80044421D01*
X117749000Y-79955579D01*
X117766331Y-79868448D01*
X117800328Y-79786373D01*
X117849685Y-79712505D01*
X117912505Y-79649685D01*
X117985906Y-79600640D01*
X117986371Y-79600329D01*
X117986373Y-79600328D01*
X118068448Y-79566331D01*
X118155579Y-79549000D01*
X118244421Y-79549000D01*
X118331552Y-79566331D01*
X118331552Y-79566331D01*
G37*
G36*
X116081938Y-79486716D02*
G01*
X116102557Y-79492971D01*
X116121553Y-79503124D01*
X116138208Y-79516792D01*
X116151876Y-79533447D01*
X116162029Y-79552443D01*
X116168284Y-79573062D01*
X116171000Y-79600640D01*
X116171000Y-80059360D01*
X116168284Y-80086938D01*
X116162029Y-80107557D01*
X116151876Y-80126553D01*
X116138208Y-80143208D01*
X116121553Y-80156876D01*
X116102557Y-80167029D01*
X116081938Y-80173284D01*
X116054360Y-80176000D01*
X115545640Y-80176000D01*
X115518062Y-80173284D01*
X115497443Y-80167029D01*
X115478447Y-80156876D01*
X115461792Y-80143208D01*
X115448124Y-80126553D01*
X115437971Y-80107557D01*
X115431716Y-80086938D01*
X115429000Y-80059360D01*
X115429000Y-79600640D01*
X115431716Y-79573062D01*
X115437971Y-79552443D01*
X115448124Y-79533447D01*
X115461792Y-79516792D01*
X115478447Y-79503124D01*
X115497443Y-79492971D01*
X115518062Y-79486716D01*
X115545640Y-79484000D01*
X116054360Y-79484000D01*
X116081938Y-79486716D01*
X116081938Y-79486716D01*
G37*
G36*
X117281938Y-79486716D02*
G01*
X117302557Y-79492971D01*
X117321553Y-79503124D01*
X117338208Y-79516792D01*
X117351876Y-79533447D01*
X117362029Y-79552443D01*
X117368284Y-79573062D01*
X117371000Y-79600640D01*
X117371000Y-80059360D01*
X117368284Y-80086938D01*
X117362029Y-80107557D01*
X117351876Y-80126553D01*
X117338208Y-80143208D01*
X117321553Y-80156876D01*
X117302557Y-80167029D01*
X117281938Y-80173284D01*
X117254360Y-80176000D01*
X116745640Y-80176000D01*
X116718062Y-80173284D01*
X116697443Y-80167029D01*
X116678447Y-80156876D01*
X116661792Y-80143208D01*
X116648124Y-80126553D01*
X116637971Y-80107557D01*
X116631716Y-80086938D01*
X116629000Y-80059360D01*
X116629000Y-79600640D01*
X116631716Y-79573062D01*
X116637971Y-79552443D01*
X116648124Y-79533447D01*
X116661792Y-79516792D01*
X116678447Y-79503124D01*
X116697443Y-79492971D01*
X116718062Y-79486716D01*
X116745640Y-79484000D01*
X117254360Y-79484000D01*
X117281938Y-79486716D01*
X117281938Y-79486716D01*
G37*
M02*
